<svg width="512" height="512" viewBox="0 0 512 512" fill="none" xmlns="http://www.w3.org/2000/svg">
<rect width="512" height="512" rx="64" fill="#221F22"/>
<path d="M242.648 325.969C239.064 325.969 235.8 325.329 232.856 324.049C229.912 322.769 227.736 321.169 226.328 319.249C228.376 312.465 229.912 305.105 230.936 297.169C232.088 289.233 232.664 281.361 232.664 273.553C232.664 263.825 231.768 254.737 229.976 246.288C228.184 237.712 225.432 230.8 221.72 225.552C218.136 220.304 213.464 217.68 207.704 217.68C203.352 217.68 198.424 219.472 192.92 223.056L191 222.288C191.64 211.28 194.392 202.64 199.256 196.368C204.12 190.096 210.264 186.96 217.688 186.96C223.064 186.96 227.928 188.496 232.28 191.568C236.76 194.64 240.664 198.736 243.992 203.856C247.448 208.976 250.392 214.736 252.824 221.136C255.384 227.536 257.433 234.064 258.969 240.72C261.785 227.536 265.433 216.976 269.913 209.04C274.393 200.976 279.193 195.152 284.313 191.568C289.433 187.856 294.361 186 299.097 186C305.113 186 310.233 188.432 314.457 193.296C318.809 198.16 320.985 204.432 320.985 212.112C320.985 216.336 320.217 220.88 318.681 225.744C314.969 223.696 311.001 222.672 306.777 222.672C301.273 222.672 295.769 224.336 290.265 227.664C284.761 230.864 279.705 235.472 275.097 241.488C270.617 247.376 267.097 254.353 264.537 262.417C264.921 269.073 265.113 274.833 265.113 279.697C265.113 286.353 264.729 292.625 263.961 298.513C263.193 304.273 261.785 311.057 259.737 318.865C257.305 321.297 254.552 323.089 251.48 324.241C248.536 325.393 245.592 325.969 242.648 325.969Z" fill="#FEFAF9"/>
</svg>
