<svg width="512" height="512" viewBox="0 0 512 512" fill="none" xmlns="http://www.w3.org/2000/svg">
<rect width="512" height="512" rx="64" fill="#221F22"/>
<path d="M229.296 395.936C222.128 395.936 215.6 394.656 209.712 392.096C203.824 389.536 199.472 386.336 196.656 382.496C200.752 368.928 203.824 354.208 205.872 338.336C208.176 322.464 209.328 306.72 209.328 291.104C209.328 271.648 207.536 253.472 203.952 236.576C200.368 219.424 194.864 205.6 187.44 195.104C180.272 184.608 170.928 179.36 159.408 179.36C150.704 179.36 140.848 182.944 129.84 190.112L126 188.576C127.28 166.56 132.784 149.28 142.512 136.736C152.24 124.192 164.528 117.92 179.376 117.92C190.128 117.92 199.856 120.992 208.56 127.136C217.52 133.28 225.328 141.472 231.984 151.712C238.896 161.952 244.784 173.472 249.648 186.272C254.768 199.072 258.864 212.128 261.936 225.44C267.568 199.072 274.864 177.952 283.824 162.08C292.784 145.952 302.384 134.304 312.624 127.136C322.864 119.712 332.72 116 342.192 116C354.224 116 364.464 120.864 372.912 130.592C381.616 140.32 385.968 152.864 385.968 168.224C385.968 176.672 384.432 185.76 381.36 195.488C373.936 191.392 366 189.344 357.552 189.344C346.544 189.344 335.536 192.672 324.528 199.328C313.52 205.728 303.408 214.944 294.192 226.976C285.232 238.752 278.192 252.704 273.072 268.832C273.84 282.144 274.224 293.664 274.224 303.392C274.224 316.704 273.456 329.248 271.92 341.024C270.384 352.544 267.568 366.112 263.472 381.728C258.608 386.592 253.104 390.176 246.96 392.48C241.072 394.784 235.184 395.936 229.296 395.936Z" fill="#FEFAF9"/>
</svg>
